<svg width="42px" height="42px" viewBox="-15 -5 60 60" fill="none" xmlns="http://www.w3.org/2000/svg">
<path d="M3.90169 0.599532C4.14564 0.545916 4.39763 0.588809 4.60673 0.725528C5.03833 0.996285 5.17237 1.61822 4.91502 2.02302C4.7354 2.33131 4.28235 3.19183 3.92313 4.49736L3.75425 5.1059H24.0584L23.8895 4.49468C23.4606 2.96397 22.903 2.06591 22.8761 2.0257C22.6027 1.58337 22.7367 0.998966 23.1791 0.720166C23.5919 0.460132 24.2085 0.570043 24.4926 1.02309C24.565 1.14373 31.6154 13.3385 15.8874 25.5467L15.4209 25.9086L15.8713 26.2893C16.6782 26.9836 17.4556 27.7048 18.1848 28.4339C29.4762 39.7333 26.7472 51.0837 26.6239 51.5609C26.5193 51.9818 26.1386 52.2766 25.7151 52.2713C25.6427 52.2766 25.565 52.2632 25.4577 52.2418C25.0449 52.1372 24.683 51.5234 24.7875 51.0944C24.8385 50.8853 25.0905 49.7567 25.1012 47.9955L25.1039 47.5129L2.68194 47.5156L2.68462 48.0008C2.7007 49.7674 2.95002 50.8826 2.99827 51.0864C3.12695 51.5984 2.81866 52.1212 2.31467 52.2525C2.23961 52.2713 2.16187 52.2793 2.07609 52.2793C1.84554 52.2766 1.59355 52.1641 1.40589 51.9764C1.28258 51.8531 1.20216 51.711 1.16463 51.5689C1.02791 51.0301 -2.05229 38.2562 11.9252 26.3027L12.3729 25.9194L11.9065 25.5575C10.5982 24.5468 9.39726 23.4933 8.33031 22.4263C-2.85384 11.2368 3.23686 1.13032 3.3012 1.02577C3.43523 0.808631 3.65237 0.658508 3.90169 0.599532ZM5.0839 37.8488C4.07594 39.929 3.37358 42.0844 3.00095 44.2209L2.88568 45.7168L24.9457 45.6793L24.7929 44.2638C24.4203 42.0924 23.7179 39.9344 22.6965 37.83L22.3373 36.8998L5.53159 36.948L5.0839 37.8488ZM7.27945 34.1332L6.75134 34.8865H21.0318L20.5037 34.1305C18.8577 31.7715 16.6863 29.4392 14.2012 27.3697L13.8902 27.115L13.5846 27.3723C11.0781 29.458 8.95761 31.7313 7.27945 34.1332ZM7.77539 18.9896C9.31683 20.8822 11.2792 22.7319 13.6007 24.4744L13.8902 24.6889L14.1771 24.4744C16.512 22.7212 18.4824 20.8742 20.0292 18.9869L21.08 17.7001L6.66824 17.7269L7.77539 18.9896ZM3.45132 8.27188C3.48885 10.6176 4.10542 12.9632 5.26352 15.2151L5.63614 15.7378L22.2408 15.8048L22.5303 15.2526C23.7259 12.9605 24.3452 10.6176 24.3774 8.27724L24.4042 7.31753L3.55855 7.16473L3.45132 8.27188Z" fill="white"/>
</svg>
