<svg width="42px" height="42px" viewBox="-12 -8 60 60" fill="none" xmlns="http://www.w3.org/2000/svg">
<path d="M33.8948 34.8726V28.3062C33.8948 25.7625 31.8557 23.6929 29.3496 23.6929H29.2767C26.7705 23.6929 24.7315 25.7625 24.7315 28.3062V37.6861C24.7315 40.6814 22.3304 43.1173 19.3794 43.1173H19.2521C16.3011 43.1173 13.9012 40.6801 13.9012 37.6861V25.5329C19.3819 25.0538 23.6996 20.3739 23.6996 14.6881V5.89781C24.8897 5.50145 25.7523 4.36378 25.7523 3.02417C25.7523 1.35717 24.4164 0 22.7728 0C21.1292 0 19.7934 1.35717 19.7934 3.02417C19.7934 4.36378 20.6559 5.50145 21.846 5.89781V14.6893C21.846 19.6539 17.8668 23.6941 12.9744 23.6941H12.7767C7.88546 23.6941 3.90628 19.6552 3.90628 14.6893V5.89781C5.09633 5.50145 5.95889 4.36378 5.95889 3.02417C5.95889 1.35717 4.62302 0 2.97945 0C1.33587 0 0 1.35717 0 3.02417C0 4.36378 0.862569 5.50145 2.05262 5.89781V14.6893C2.05262 20.4429 6.47298 25.1679 12.0488 25.5493V37.6861C12.0488 41.7187 15.2803 44.9987 19.2533 44.9987H19.3806C23.3536 44.9987 26.5852 41.7187 26.5852 37.6861V28.3062C26.5852 26.7998 27.7925 25.5743 29.2767 25.5743H29.3496C30.8338 25.5743 32.0411 26.7998 32.0411 28.3062V34.8726C29.708 35.3154 27.9359 37.3976 27.9359 39.8924C27.9359 42.7084 30.1936 45 32.9679 45C35.7422 45 38 42.7084 38 39.8924C38 37.3976 36.2279 35.3154 33.8948 34.8726ZM22.7728 1.88148C23.3932 1.88148 23.8986 2.3945 23.8986 3.02417C23.8986 3.65384 23.3932 4.16685 22.7728 4.16685C22.1525 4.16685 21.647 3.65384 21.647 3.02417C21.647 2.3945 22.1525 1.88148 22.7728 1.88148ZM2.97945 1.88148C3.5998 1.88148 4.10524 2.3945 4.10524 3.02417C4.10524 3.65384 3.5998 4.16685 2.97945 4.16685C2.35909 4.16685 1.85366 3.65384 1.85366 3.02417C1.85366 2.3945 2.35909 1.88148 2.97945 1.88148ZM32.9679 43.1185C31.2156 43.1185 29.7895 41.671 29.7895 39.8924C29.7895 38.1138 31.2156 36.6663 32.9679 36.6663C34.7203 36.6663 36.1463 38.1138 36.1463 39.8924C36.1463 41.671 34.7203 43.1185 32.9679 43.1185Z" fill="white" />
</svg>
