<svg width="45" height="45" viewBox="0 0 45 45" fill="none" xmlns="http://www.w3.org/2000/svg">
<path d="M13.5 33C16.8137 33 19.5 30.3137 19.5 27C19.5 23.6863 16.8137 21 13.5 21C10.1863 21 7.5 23.6863 7.5 27C7.5 30.3137 10.1863 33 13.5 33Z" fill="#3E8CFF"/>
<path d="M27.75 37.5C29.8211 37.5 31.5 35.8211 31.5 33.75C31.5 31.6789 29.8211 30 27.75 30C25.6789 30 24 31.6789 24 33.75C24 35.8211 25.6789 37.5 27.75 37.5Z" fill="#3E8CFF"/>
<path d="M28.5 25.5C33.4706 25.5 37.5 21.4706 37.5 16.5C37.5 11.5294 33.4706 7.5 28.5 7.5C23.5294 7.5 19.5 11.5294 19.5 16.5C19.5 21.4706 23.5294 25.5 28.5 25.5Z" fill="#3E8CFF"/>
</svg>
