<svg width="22" height="23" viewBox="0 0 22 23" fill="none" xmlns="http://www.w3.org/2000/svg">
<g clip-path="url(#clip0_92:9674)">
<path d="M13.7959 5.08317C14.6912 5.25786 15.514 5.69574 16.1591 6.34078C16.8041 6.98582 17.242 7.80866 17.4167 8.704L13.7959 5.08317ZM13.7959 1.4165C15.656 1.62315 17.3906 2.45616 18.7149 3.77876C20.0392 5.10136 20.8744 6.83493 21.0834 8.69484L13.7959 1.4165ZM20.1667 16.0098V18.7598C20.1677 19.0151 20.1154 19.2678 20.0132 19.5017C19.9109 19.7357 19.7609 19.9456 19.5728 20.1182C19.3846 20.2908 19.1625 20.4222 18.9207 20.504C18.6789 20.5858 18.4226 20.6161 18.1684 20.5932C15.3476 20.2867 12.6381 19.3228 10.2575 17.779C8.0427 16.3716 6.16491 14.4938 4.75752 12.279C3.20833 9.88761 2.24424 7.16492 1.94335 4.3315C1.92045 4.07802 1.95057 3.82253 2.03181 3.58133C2.11305 3.34012 2.24363 3.11847 2.41522 2.93049C2.58682 2.74251 2.79567 2.59232 3.0285 2.48948C3.26132 2.38664 3.513 2.33341 3.76752 2.33317H6.51752C6.96238 2.32879 7.39366 2.48633 7.73097 2.77641C8.06827 3.06649 8.28859 3.46933 8.35085 3.90984C8.46692 4.7899 8.68218 5.654 8.99252 6.48567C9.11585 6.81377 9.14254 7.17034 9.06943 7.51314C8.99632 7.85595 8.82648 8.17061 8.58002 8.41984L7.41585 9.584C8.72078 11.8789 10.6209 13.7791 12.9159 15.084L14.08 13.9198C14.3293 13.6734 14.6439 13.5035 14.9867 13.4304C15.3295 13.3573 15.6861 13.384 16.0142 13.5073C16.8459 13.8177 17.71 14.0329 18.59 14.149C19.0353 14.2118 19.442 14.4361 19.7327 14.7792C20.0234 15.1223 20.1778 15.5603 20.1667 16.0098Z" stroke="#3E8CFF" stroke-width="2" stroke-linecap="round" stroke-linejoin="round"/>
</g>
<defs>
<clipPath id="clip0_92:9674">
<rect width="22" height="22" fill="white" transform="translate(0 0.5)"/>
</clipPath>
</defs>
</svg>
