<svg width="26" height="27" viewBox="0 0 26 27" fill="none" xmlns="http://www.w3.org/2000/svg">
<g clip-path="url(#clip0)">
<path d="M16.3034 5.91683C17.3615 6.12327 18.334 6.64077 19.0963 7.40309C19.8586 8.16541 20.3761 9.13787 20.5826 10.196L16.3034 5.91683ZM16.3034 1.5835C18.5018 1.82772 20.5518 2.81219 22.1168 4.37525C23.6819 5.93832 24.6689 7.98709 24.9159 10.1852L16.3034 1.5835ZM23.8326 18.8302V22.0802C23.8338 22.3819 23.772 22.6805 23.6511 22.957C23.5303 23.2334 23.353 23.4815 23.1307 23.6855C22.9083 23.8895 22.6459 24.0448 22.36 24.1414C22.0742 24.2381 21.7714 24.274 21.4709 24.2468C18.1373 23.8846 14.9352 22.7455 12.1217 20.921C9.50422 19.2577 7.28502 17.0385 5.62174 14.421C3.79088 11.5948 2.6515 8.37707 2.2959 5.0285C2.26883 4.72892 2.30443 4.42699 2.40044 4.14192C2.49646 3.85686 2.65077 3.59491 2.85357 3.37275C3.05636 3.1506 3.30319 2.9731 3.57834 2.85156C3.85349 2.73003 4.15094 2.66711 4.45174 2.66683H7.70174C8.22748 2.66165 8.73718 2.84783 9.13581 3.19066C9.53445 3.53348 9.79482 4.00956 9.8684 4.53016C10.0056 5.57023 10.26 6.59145 10.6267 7.57433C10.7725 7.96208 10.804 8.38349 10.7176 8.78862C10.6312 9.19375 10.4305 9.56562 10.1392 9.86016L8.7634 11.236C10.3056 13.9482 12.5512 16.1938 15.2634 17.736L16.6392 16.3602C16.9338 16.0689 17.3057 15.8682 17.7108 15.7818C18.1159 15.6954 18.5373 15.7269 18.9251 15.8727C19.9079 16.2394 20.9292 16.4938 21.9692 16.631C22.4955 16.7052 22.9761 16.9703 23.3196 17.3758C23.6632 17.7813 23.8458 18.2989 23.8326 18.8302Z" stroke="white" stroke-width="2" stroke-linecap="round" stroke-linejoin="round"/>
</g>
<defs>
<clipPath id="clip0">
<rect width="26" height="26" fill="white" transform="translate(0 0.5)"/>
</clipPath>
</defs>
</svg>
