<svg width="42" height="42px" viewBox="-6 -8 60 60" fill="none" xmlns="http://www.w3.org/2000/svg">
<path d="M45.7725 7.65408H37.1484V4.61552C37.1484 2.16194 35.1403 0.166656 32.6709 0.166656H15.2803C12.8119 0.166656 10.8028 2.16194 10.8028 4.61552V7.65408H2.2275C0.999375 7.65408 0 8.64707 0 9.86734V38.6201C0 39.8403 0.999375 40.8333 2.2275 40.8333H45.7725C47.0006 40.8333 48 39.8403 48 38.6201V9.86734C48 8.64707 47.0006 7.65408 45.7725 7.65408ZM12.225 4.61552C12.225 2.94161 13.5956 1.57975 15.2803 1.57975H32.6709C34.3556 1.57975 35.7262 2.94161 35.7262 4.61552V7.63639H33.5034V4.61552C33.5034 4.16747 33.1219 3.78834 32.6709 3.78834H15.2803C14.8294 3.78834 14.4478 4.16747 14.4478 4.61552V7.63639H12.225V4.61552ZM32.0822 5.20144V7.65408H15.87V5.20144H32.0822ZM1.42219 9.86734C1.42219 9.42581 1.78406 9.06625 2.22844 9.06625H6.69375C6.3675 11.7983 4.17562 13.9678 1.42219 14.2799C1.42219 14.2799 1.42219 9.86734 1.42219 9.86734ZM2.2275 39.4202C1.78313 39.4202 1.42125 39.0607 1.42125 38.6191V34.1069C4.19531 34.4339 6.39563 36.649 6.67781 39.4193H2.2275V39.4202ZM46.5778 38.6201C46.5778 39.0616 46.2159 39.4212 45.7716 39.4212H40.9641C41.2584 36.5326 43.6359 34.2476 46.5769 34.0762L46.5778 38.6201ZM46.5778 32.6612C42.8531 32.8364 39.84 35.7529 39.5391 39.4212H8.10375C7.81219 35.8712 4.98094 33.0255 1.42125 32.6873V15.7004C4.95938 15.3781 7.78594 12.578 8.12344 9.06625H39.5184C39.8672 12.6954 42.8737 15.5635 46.5769 15.7237L46.5778 32.6612ZM46.5778 14.3106C43.6594 14.1541 41.2903 11.9148 40.95 9.06625H45.7716C46.2159 9.06625 46.5778 9.42581 46.5778 9.86734V14.3106Z" fill="white"/>
<path d="M23.9992 13.489C18.0311 13.489 13.1758 18.3133 13.1758 24.2432C13.1758 30.1732 18.0311 34.9974 23.9992 34.9974C29.9673 34.9974 34.8226 30.1732 34.8226 24.2432C34.8226 18.3133 29.9673 13.489 23.9992 13.489ZM23.9992 33.5853C18.8148 33.5853 14.598 29.3954 14.598 24.2442C14.598 19.0929 18.8148 14.9021 23.9992 14.9021C29.1836 14.9021 33.4005 19.0929 33.4005 24.2432C33.4005 29.3935 29.1836 33.5853 23.9992 33.5853Z" fill="white"/>
<path d="M30.3189 21.8325H26.4273V17.9658C26.4273 17.5755 26.1095 17.2598 25.7167 17.2598H22.2855C21.8927 17.2598 21.5748 17.5755 21.5748 17.9658V21.8325H17.6833C17.2905 21.8325 16.9727 22.1483 16.9727 22.5386V25.947C16.9727 26.3373 17.2905 26.653 17.6833 26.653H21.5748V30.5197C21.5748 30.91 21.8927 31.2258 22.2855 31.2258H25.7158C26.1086 31.2258 26.4264 30.91 26.4264 30.5197V26.653H30.318C30.7108 26.653 31.0286 26.3373 31.0286 25.947V22.5386C31.0305 22.1492 30.7117 21.8325 30.3189 21.8325ZM29.6083 25.2409H25.7167C25.3239 25.2409 25.0061 25.5567 25.0061 25.947V29.8136H22.998V25.947C22.998 25.5567 22.6802 25.2409 22.2873 25.2409H18.3958V23.2456H22.2873C22.6802 23.2456 22.998 22.9298 22.998 22.5395V18.6729H25.0061V22.5395C25.0061 22.9298 25.3239 23.2456 25.7167 23.2456H29.6083V25.2409Z" fill="white"/>
</svg>
