<svg width="54" height="54" viewBox="0 0 54 54" fill="none" xmlns="http://www.w3.org/2000/svg">
<path d="M53 37.6195C53 40.9654 53 44.3113 53 47.6571C52.467 50.216 50.7348 51.5622 48.357 52.2571C46.3882 52.8324 44.4194 53.4169 42.4505 53.9968C39.4617 53.9968 36.4728 53.9968 33.484 53.9968C29.2545 52.7634 25.4754 50.285 20.9749 49.7351C18.4616 49.4267 16.132 48.2715 13.9197 46.9898C3.88713 41.1725 0.987867 28.3597 7.57668 18.7547C8.13724 17.9355 8.39684 17.305 7.85466 16.3984C5.69515 12.7925 3.50807 9.21419 0.255011 6.44821C0.255011 4.72696 -0.420412 2.2072 0.427312 1.48464C1.47261 0.5964 3.78605 1.2016 5.55271 1.16478C5.89732 1.15788 6.23962 1.16478 6.58423 1.16478C7.63182 2.32456 8.49333 4.03661 9.78674 4.47613C10.9354 4.86733 11.7027 2.75027 12.9479 2.12436C13.4878 1.85283 13.9817 1.48694 14.4986 1.16478C14.8501 1.16478 15.2016 1.16478 15.5531 1.16478C15.8242 1.36728 16.0884 1.57899 16.3687 1.76768C19.6585 3.98139 19.9204 6.13066 17.0326 8.70334C15.3142 10.2336 14.3723 11.6557 16.3434 13.6278C16.6398 13.9246 16.7592 14.3941 16.9867 14.7692C18.0848 16.5779 19.8423 16.9207 21.4987 15.6045C22.6772 14.6656 23.9362 13.5956 25.3766 13.4989C28.4665 13.2918 28.7284 10.5627 30.0655 8.79078C30.5089 8.20169 30.0609 7.74146 29.6313 7.48603C27.6326 6.30324 28.5929 5.23781 29.6014 3.99059C30.5548 2.8124 31.9195 2.1934 32.9625 1.16248C33.6655 1.16248 34.3685 1.16248 35.0714 1.16248C36.8634 2.52246 38.5129 4.67863 40.484 5.03301C42.7079 5.43341 44.0173 2.45573 46.0275 1.38799C46.0896 1.35578 46.1079 1.23842 46.1493 1.16018C47.0292 1.16018 47.9068 1.16018 48.7867 1.16018C50.5924 1.93797 51.9639 3.2082 53.0069 4.85812C53.0069 5.56227 53.0069 6.26642 53.0069 6.97057C50.6935 7.75987 49.2461 9.70204 47.422 11.1426C46.2182 12.0929 45.9356 12.9904 46.6961 14.47C48.1824 17.3626 48.8188 20.5404 49.4942 23.7206C50.4798 28.3965 51.8123 32.9942 53 37.6195ZM22.2821 47.6525C21.5239 46.5963 20.9427 45.8369 20.4097 45.043C17.1153 40.137 15.5531 34.7454 15.9758 28.82C16.0287 28.0744 15.9184 27.032 17.1015 27.124C18.1882 27.2092 18.0733 28.1595 18.0848 28.9534C18.1055 30.3594 18.0618 31.7746 18.1882 33.1737C19.0589 42.8362 25.8889 50.5267 34.7613 51.7118C39.2733 52.3147 43.675 51.5967 47.9964 50.1746C49.9629 49.528 50.7463 48.2992 50.8474 46.2995C51.1139 41.0667 50.7049 35.9121 49.2002 30.8887C46.2412 21.0076 39.8476 15.6252 30.4698 15.0062C27.6372 14.8198 24.9148 15.3513 22.8679 17.3188C21.2345 18.8882 19.8974 18.8997 17.839 18.214C12.7365 16.5157 9.46511 18.1795 7.49857 22.9935C3.00035 34.0044 9.98661 46.0049 22.2821 47.6525ZM30.0862 13.0663C32.0619 12.5486 33.8837 14.6219 35.0485 12.1182C36.1443 9.76187 37.3068 10.3441 38.1476 12.0745C39.9809 15.8461 43.6567 17.6709 46.7558 20.9777C45.3176 15.3237 42.933 10.9216 39.294 7.20299C37.9983 5.87753 36.6015 4.67173 34.9612 3.7996C33.4288 2.98499 32.5007 4.15857 31.568 5.0192C30.5755 5.93276 31.6782 6.40679 32.1699 6.85552C33.1233 7.72535 32.8384 8.45251 32.2204 9.35226C31.5312 10.351 30.9982 11.4578 30.0862 13.0663ZM14.5285 14.9878C14.2459 13.4138 12.1002 12.3714 12.4563 10.7606C12.8284 9.08533 14.6571 8.11885 15.9391 6.93146C16.0034 6.87163 16.07 6.8141 16.1389 6.75887C17.051 6.06162 16.9223 5.23091 16.3181 4.46923C15.7116 3.70525 14.8685 3.38309 14.0139 4.05042C13.049 4.8052 12.0588 5.58068 11.2846 6.51725C10.1543 7.88413 9.32267 8.29373 8.29805 6.416C7.80412 5.51165 6.97248 4.78679 6.26489 4.0067C5.24487 2.88144 4.20187 3.26113 3.27374 4.09874C2.34101 4.94096 2.71548 5.73716 3.42306 6.60239C4.97608 8.50544 6.73126 10.3279 7.85466 12.4726C9.387 15.3905 11.025 17.1647 14.5285 14.9878ZM44.7984 10.6064C45.251 10.2221 45.5841 9.94366 45.9104 9.66061C46.8936 8.79999 47.9091 7.97157 48.8487 7.06262C49.5655 6.36767 51.2494 5.92125 50.0249 4.48764C49.0669 3.36468 47.7046 2.85152 46.317 3.88704C45.2028 4.71775 44.1896 5.68423 43.1214 6.57708C42.5677 7.03961 42.4184 7.49524 42.9284 8.11655C43.5717 8.90354 44.1552 9.74115 44.7984 10.6064Z" fill="white"/>
</svg>
