<svg width="59" height="58" viewBox="0 0 59 58" fill="none" xmlns="http://www.w3.org/2000/svg">
<path d="M44.0322 51.3722C49.444 47.7496 52.5941 43.2072 54.314 37.6568C56.3112 31.2054 56.9727 24.7351 54.1565 18.2901C51.5042 12.223 43.8747 6.82376 37.0642 12.0151C35.8482 12.9412 35.0733 12.2734 34.7142 11.0953C33.744 7.96409 33.4542 4.7258 33.4353 1.46232C33.429 0.655896 33.7944 -0.0245223 34.7079 0.000678355C35.6466 0.025879 35.8419 0.769299 35.8986 1.55052C35.9238 1.96633 35.9112 2.39474 35.9679 2.81055C36.2137 4.6754 35.886 7.01276 36.8878 8.2854C38.1163 9.83524 39.9749 7.66168 41.6633 7.51678C45.4623 7.18287 48.7195 8.3043 51.5483 10.7173C56.5317 14.9699 58.4343 20.6085 58.5226 26.9528C58.7116 40.7187 51.4727 52.0968 39.8426 56.2045C31.1483 59.2789 23.1219 58.3969 16.2547 51.6872C16.0279 51.4667 15.7885 51.2651 15.5554 51.0509C12.2289 48.0899 11.1642 48.2348 9.72775 52.5693C8.76383 55.4862 6.96198 55.6501 4.63092 55.0893C1.19103 54.264 0.170402 52.3929 1.44304 49.1735C2.24946 47.1322 3.08108 45.0721 4.18991 43.1883C7.22659 38.0222 11.0445 36.6362 16.702 38.5577C19.0961 39.3704 21.4461 40.1705 24.0165 40.2209C26.65 40.2713 28.4267 39.1058 29.4725 36.7621C31.3877 32.4654 30.8144 27.9104 30.7703 23.4184C30.764 22.99 30.3167 22.4986 29.9639 22.1458C24.4008 16.5512 23.733 9.34383 23.3235 2.05453C23.2668 1.07801 23.3613 -0.011922 24.6717 0.0447795C25.7554 0.0951809 25.7932 1.10321 25.8184 1.96003C25.9318 5.32432 26.2657 8.65711 27.0784 11.9269C27.7714 14.699 28.5779 17.6537 30.8018 19.4241C34.752 22.5679 33.1644 26.6882 33.2841 30.4557C33.3912 34.0531 32.5848 37.5749 30.0332 40.3784C28.5464 42.0165 26.6122 42.6969 24.4008 42.741C21.2886 42.7977 18.4283 41.8275 15.5302 40.8636C11.5485 39.5405 9.29304 40.328 6.81708 43.7112C5.37434 45.6832 4.63722 47.9953 3.7615 50.2382C3.35199 51.284 3.50319 52.0653 4.68762 52.4559C5.75235 52.8087 6.75408 53.0418 7.30219 51.6872C7.42189 51.3974 7.4849 51.0824 7.6172 50.7989C10.0617 45.6391 12.777 45.0406 17.0233 49.0601C17.0296 49.0538 27.3682 61.0556 44.0322 51.3722Z" fill="white"/>
</svg>
