<svg width="58" height="53" viewBox="0 0 58 53" fill="none" xmlns="http://www.w3.org/2000/svg">
<path d="M0.701904 25.2911C2.3715 19.7729 6.15779 16.728 11.591 14.883C23.7083 10.7685 35.6784 6.2351 47.7108 1.88284C52.3856 0.19627 54.1741 0.666019 57.2982 4.35044C57.2982 5.86156 57.2982 7.36702 57.2982 8.87814C55.821 10.9326 53.7836 12.0928 51.4009 12.8738C47.5636 14.1359 43.7887 15.5905 39.9741 16.9375C38.7346 17.3732 37.7498 17.6732 38.7969 19.3824C40.2061 21.6802 38.4177 24.3289 38.8874 26.389C39.4081 28.6755 40.9702 30.8828 40.1665 33.2994C39.476 35.3822 39.6458 37.1254 40.2231 39.1855C41.3097 43.068 39.4194 46.1921 35.5879 47.5787C31.4337 49.0842 27.2739 50.5726 23.0971 52.0158C15.117 54.7664 8.61973 51.6649 5.72766 43.7981C4.0807 39.3156 2.37715 34.8558 0.701904 30.3847C0.701904 28.6868 0.701904 26.989 0.701904 25.2911ZM17.9128 50.799C19.4749 50.8952 20.9124 50.4311 22.3387 49.9274C26.3287 48.5182 30.3187 47.092 34.2975 45.6544C38.129 44.2735 39.3742 41.2625 37.4442 37.6177C36.7877 36.3726 36.8726 35.552 37.4329 34.2899C38.4516 32.0034 38.9836 29.5471 36.2048 27.8492C34.8238 27.0059 35.6162 26.2589 36.2331 25.342C37.8291 22.9593 37.597 20.4238 35.7973 18.9806C35.186 18.4882 33.9692 18.4939 34.1843 17.3167C34.3993 16.1621 35.5822 16.1508 36.4085 15.8451C41.6097 13.9152 46.8335 12.0362 52.063 10.1799C54.3156 9.38185 55.6626 8.03486 54.9325 5.51632C54.3835 3.61469 52.0857 2.73744 49.7369 3.57507C36.3632 8.36312 22.9839 13.1285 9.6611 18.0467C4.22785 20.0559 1.74328 25.4439 3.5487 30.9167C5.0485 35.4727 6.65583 40.0004 8.44428 44.4489C10.1139 48.637 13.487 50.5896 17.9128 50.799Z" fill="white"/>
<path d="M57.2982 28.6869C56.6813 29.4962 56.1493 30.3904 55.4248 31.0922C53.5628 32.9089 50.8292 33.1806 48.6899 31.7431C46.4317 30.2263 45.4469 28.0813 46.2675 25.4099C47.4278 21.6236 49.3634 18.1882 51.5367 14.4359C54.1514 17.8656 55.3739 21.7765 57.2982 25.2911C57.2982 26.423 57.2982 27.5549 57.2982 28.6869ZM51.6329 19.19C50.1784 21.5105 49.2558 23.6272 48.5088 25.8287C47.9541 27.4757 48.4125 28.8114 49.8105 29.7848C51.0216 30.6225 52.3234 30.6055 53.5119 29.7565C54.8928 28.7718 55.323 27.4248 54.7513 25.7835C54.0099 23.6385 53.1327 21.567 51.6329 19.19Z" fill="white"/>
</svg>
