<svg width="58" height="52" viewBox="0 0 58 52" fill="none" xmlns="http://www.w3.org/2000/svg">
<path d="M57.1084 12.6595C56.3889 13.0193 56.6306 13.8176 56.327 14.3742C55.5512 15.7796 55.5906 18.1913 53.5106 18.107C51.0595 18.0114 48.8727 16.7353 47.3604 14.6215C46.5621 13.5028 47.5178 12.9687 48.0912 12.2604C49.2268 10.855 51.4137 9.14036 49.8508 7.56067C48.2374 5.92476 47.0063 8.74684 45.5165 9.40458C40.3333 11.6926 38.1352 16.1 36.2801 21.1258C35.077 24.3808 34.3518 27.1466 35.9484 30.4466C37.6686 33.9995 36.7579 37.811 36.1452 41.5044C35.701 44.1804 35.1614 46.8394 34.5655 49.4872C34.3462 50.4823 34.4811 52.1744 32.8677 51.8315C31.4735 51.5335 32.1875 50.1281 32.3561 49.178C32.9689 45.6757 33.576 42.1734 34.2788 38.688C34.914 35.5454 34.6498 32.5322 33.2612 29.6483C32.0188 27.0792 32.2325 24.5888 33.4636 22.0927C34.8747 19.2425 36.2801 16.3755 36.8704 13.2105C37.0896 12.0299 37.871 11.479 38.8436 11.0405C41.2609 9.94988 43.3522 8.3983 45.3366 6.6612C47.7539 4.54182 50.0532 4.227 51.5879 5.69989C53.044 7.09407 52.8641 9.78123 51.3125 12.1929C50.8796 12.8619 49.4011 13.233 50.2612 14.3742C50.8121 15.105 51.7903 15.5884 52.7348 15.521C53.9153 15.4367 53.9772 14.2449 54.2245 13.4072C54.5393 12.3391 54.8035 11.2091 54.8092 10.1073C54.8204 7.30207 54.2976 4.54744 51.6217 3.05769C49.1819 1.69724 46.7645 2.81596 44.8363 4.31133C40.9517 7.32456 37.337 7.85299 33.1094 4.78355C30.4279 2.83845 27.0999 3.06894 24.3846 5.03653C20.8148 7.62251 17.5205 7.60002 14.1419 4.88474C13.8495 4.64863 13.5235 4.46312 13.203 4.26636C9.58267 2.0233 6.8955 1.96146 5.04597 4.07522C2.85351 6.58249 2.47124 12.6708 4.37137 14.9813C5.46197 16.308 6.40642 15.1499 7.31713 14.7227C8.62136 14.1156 7.81184 13.4578 7.24967 12.8282C6.94048 12.4796 6.65939 12.0974 6.41766 11.6982C4.97851 9.33712 5.01786 6.6893 6.63691 5.54248C8.8125 4.00214 10.7014 4.95782 12.4554 6.47006C13.2368 7.14466 13.9282 8.08348 14.839 8.40954C22.4282 11.1192 22.3664 18.804 25.3571 24.482C25.9193 25.5445 25.8631 26.9499 25.2728 28.0461C22.3102 33.5497 23.6819 39.1658 24.7331 44.7763C25.0592 46.5246 25.4302 48.2617 25.8125 49.9988C25.9924 50.8027 26.0092 51.6066 25.1323 51.8821C24.1372 52.1913 23.7943 51.3199 23.6762 50.5891C22.4339 43.0279 19.162 35.523 22.9792 27.7987C23.7718 26.1966 23.2096 24.6843 22.5238 23.2227C21.2139 20.4287 19.8872 17.6404 19.1452 14.6215C18.9934 14.0031 18.8697 13.3566 18.1501 13.0306C15.2268 11.6926 12.7421 9.70815 10.291 7.66186C9.63327 7.11093 8.79564 6.69493 8.01984 7.44261C7.38459 8.05538 7.60384 8.8649 7.98049 9.52264C8.48644 10.4052 8.96429 11.4059 9.72322 12.0299C11.494 13.5028 10.9712 14.6777 9.52083 15.8808C9.16105 16.1787 8.77877 16.4542 8.38525 16.7072C4.37137 19.2482 3.27514 18.8603 1.65609 14.3854C1.44809 13.7951 1.6055 13.0249 0.891541 12.6595C0.891541 10.7875 0.891541 8.90987 0.891541 7.03785C1.10516 6.64995 1.36376 6.27892 1.53241 5.86854C3.74174 0.381769 7.64881 -1.11922 12.9613 1.53422C13.962 2.03455 14.9458 2.60234 15.8227 3.28256C18.2288 5.13772 20.4157 5.04777 22.9623 3.29943C26.875 0.606637 31.1194 0.612259 35.0321 3.29943C37.5787 5.04777 39.6587 4.96907 42.1828 3.29943C49.7946 -1.72074 53.0946 -0.832516 57.1084 7.03785C57.1084 8.91549 57.1084 10.7875 57.1084 12.6595Z" fill="white"/>
<path d="M21.8267 9.15154C26.7794 6.52621 31.2543 6.50935 35.9203 9.02786C31.8333 10.2927 31.1531 13.7782 30.8551 17.1456C30.366 22.6829 30.0287 28.1416 30.8945 33.8308C31.749 39.43 30.4728 45.3608 30.1299 51.1456C30.085 51.8932 29.5846 52.0001 28.9662 52.0001C28.3141 52.0001 27.8644 51.7864 27.87 51.0725C27.8925 44.4895 26.3465 38.0133 27.5102 31.301C28.5952 25.0553 27.9487 18.6241 26.0261 12.4627C25.4471 10.6357 23.9742 9.64063 21.8267 9.15154Z" fill="white"/>
</svg>
