<svg width="62" height="59" viewBox="0 0 62 59" fill="none" xmlns="http://www.w3.org/2000/svg">
<path d="M37.1521 44.52C37.1521 44.85 37.0921 45.2 37.1621 45.52C37.8421 48.66 35.3521 52.69 38.7321 54.91C42.7021 57.52 47.6421 57.66 52.1321 56.89C58.7921 55.75 60.4521 52.87 60.6921 45.52C60.9321 37.78 59.2221 30.59 55.1421 24.03C50.5921 16.72 45.2721 14.57 38.1521 17.02" stroke="white" stroke-width="2" stroke-miterlimit="10" stroke-linecap="round" stroke-linejoin="round"/>
<path d="M24.5621 44.52C24.5621 44.85 24.6221 45.2 24.5521 45.52C23.8721 48.66 26.3621 52.69 22.9821 54.91C19.0121 57.52 14.0721 57.66 9.58206 56.89C2.92206 55.75 1.26206 52.87 1.02206 45.52C0.782057 37.78 2.49206 30.6 6.57206 24.03C11.1221 16.72 16.4421 14.57 23.5621 17.02" stroke="white" stroke-width="2" stroke-miterlimit="10" stroke-linecap="round" stroke-linejoin="round"/>
<path d="M43.1521 29.02C36.1421 25.48 33.7621 19.51 34.1321 12.02C34.2621 9.36 34.0621 6.68 34.1821 4.02C34.2821 1.78 33.2521 1 31.1521 1C29.0521 1 28.1421 1.79 28.1021 4.02C28.0321 8.53 28.0021 13 27.4621 17.56C26.7521 23.48 23.4221 26.3 19.1521 29.02" stroke="white" stroke-width="2" stroke-miterlimit="10" stroke-linecap="round" stroke-linejoin="round"/>
<path d="M40.6521 33.52C37.4421 32.89 35.3921 29.97 31.6621 29.82C27.5121 29.65 25.0321 32.5 21.6521 33.52" stroke="white" stroke-width="2" stroke-miterlimit="10" stroke-linecap="round" stroke-linejoin="round"/>
<path d="M24.6521 33.02C25.9321 39.13 22.3321 42.39 17.6521 45.02" stroke="white" stroke-width="2" stroke-miterlimit="10" stroke-linecap="round" stroke-linejoin="round"/>
<path d="M37.6521 33.02C36.3721 39.13 39.9721 42.39 44.6521 45.02" stroke="white" stroke-width="2" stroke-miterlimit="10" stroke-linecap="round" stroke-linejoin="round"/>
</svg>
