<svg width="54" height="58" viewBox="0 0 54 58" fill="none" xmlns="http://www.w3.org/2000/svg">
<path d="M33.9827 58C28.9541 58 23.9313 58 18.9027 58C17.6383 57.1648 15.8693 57.0082 15.0689 55.593C14.0307 53.7544 12.4531 53.1048 10.5275 52.5306C6.51388 51.33 4.52448 48.0356 5.33648 44.0858C5.63228 42.659 5.23208 42.0326 4.15908 41.2728C1.10828 39.1094 -0.556316 36.0238 0.957484 32.5148C2.21608 29.5916 2.17548 27.1034 0.980684 24.36C0.679084 23.6698 0.632684 22.8578 0.516684 22.098C-0.498316 15.3932 2.51768 10.0166 8.67148 7.4994C9.19348 7.2848 9.91848 7.0934 10.1273 6.6758C12.0993 2.8072 15.6837 1.2644 19.4827 0C24.5113 0 29.5341 0 34.5627 0C41.1283 1.5312 44.5445 7.6966 50.1937 10.643C51.9337 11.5536 52.5891 13.8272 53.1517 15.8166C54.2247 19.6214 53.5635 23.287 52.2991 26.8946C51.9105 27.9966 51.6089 28.884 52.2585 30.131C54.7757 34.9682 54.0101 38.1872 49.7065 41.4526C48.8539 42.0964 48.4015 42.572 48.6161 43.7784C49.4687 48.5518 47.9027 50.692 43.1351 51.8172C42.1665 52.0434 40.8035 51.6316 40.2699 52.7974C38.9823 55.564 36.4883 56.7704 33.9827 58ZM28.1827 29.1566C28.1827 36.598 28.1595 44.0336 28.1943 51.475C28.2059 54.3576 29.3775 55.68 31.8251 55.6452C33.7159 55.6162 35.4153 54.9492 36.8537 53.7022C38.1007 52.6234 38.4603 51.7534 36.6333 50.7094C34.0813 49.2478 33.1185 46.7132 32.8749 43.8886C32.7995 43.0302 32.7067 41.9862 33.9189 41.876C34.9455 41.7832 35.0441 42.6648 35.1717 43.4652C35.3167 44.4106 35.4327 45.4024 35.7981 46.2724C37.1495 49.4914 40.4555 50.6108 44.0631 49.155C46.7137 48.0878 47.3575 46.4232 45.9423 42.978C45.2405 41.267 45.8727 40.9016 47.2241 40.2868C50.5069 38.7904 51.9337 36.0296 51.1797 33.1122C50.7853 31.581 50.3677 30.5544 48.6103 32.1494C46.5281 34.0344 43.8253 34.568 41.0877 34.7536C40.1655 34.8174 38.8779 35.061 38.7909 33.7154C38.7039 32.3234 40.0089 32.5148 40.9369 32.4626C45.0143 32.2364 48.0303 30.5544 49.9211 26.7322C53.5113 19.4764 50.8085 11.9422 43.4483 9.3496C42.7465 9.1002 42.3405 8.8276 42.0273 8.1374C40.5309 4.8546 37.7121 3.335 34.3597 2.5984C29.7371 1.5834 28.2465 2.7028 28.2059 7.424C28.1479 14.6624 28.1943 21.9066 28.1827 29.1566ZM25.8627 29.0116C25.8627 28.1416 25.8627 27.2716 25.8627 26.4074C25.8569 19.8418 25.9149 13.282 25.8105 6.7164C25.7467 2.9116 24.4475 1.856 20.7181 2.407C16.9365 2.9754 13.6711 4.466 11.9833 8.2186C11.7223 8.7986 11.3859 9.0712 10.7885 9.309C3.58488 12.1742 1.17788 17.1854 3.34708 24.6326C3.77048 26.0942 4.08368 27.115 5.96868 25.8448C9.23408 23.6466 12.7779 23.9946 16.1767 25.6012C17.3309 26.1464 19.5639 26.6452 18.6069 28.4316C17.7253 30.0672 16.5537 28.0082 15.4749 27.7356C14.9181 27.5964 14.4019 27.3122 13.8509 27.144C9.69228 25.9028 5.09868 27.9386 3.45148 31.7434C1.83908 35.467 3.05708 38.1176 7.68548 40.6174C8.56708 41.093 8.70048 41.4004 8.34668 42.3516C6.54288 47.212 8.20169 50.199 13.2535 50.9124C14.7499 51.1212 15.2951 51.7302 15.8809 52.9598C16.9075 55.1232 20.5093 56.3122 23.2585 55.564C25.7873 54.8738 25.8975 52.867 25.8859 50.7326C25.8395 43.4942 25.8627 36.2558 25.8627 29.0116Z" fill="white"/>
<path d="M44.2081 23.1593C39.9741 22.8983 36.1403 20.0215 35.3341 16.4777C35.1195 15.5381 34.8179 14.3723 36.0765 14.0475C37.2481 13.7517 37.3003 14.8653 37.5613 15.7121C38.5995 19.1225 41.2153 20.4681 44.5213 20.8451C45.4493 20.9495 46.7543 20.7929 46.5745 22.1849C46.4121 23.4783 45.1419 23.1419 44.2081 23.1593Z" fill="white"/>
<path d="M18.8737 44.1903C18.8853 45.0603 19.0071 46.1217 17.8645 46.2493C16.6697 46.3827 16.6349 45.3329 16.5479 44.4513C16.1941 40.7857 14.7325 37.9843 10.7943 37.1549C9.91847 36.9693 9.30947 36.5517 9.64007 35.5889C9.97067 34.6145 10.8233 34.8059 11.5889 34.9277C15.5039 35.5599 18.8099 39.7649 18.8737 44.1903Z" fill="white"/>
<path d="M14.0307 18.5368C13.1549 18.5368 12.1283 18.6064 12.0819 17.3942C12.0471 16.385 12.9403 16.2864 13.7407 16.211C16.1825 15.9848 18.2995 15.312 18.9781 12.5338C19.1231 11.9248 19.6509 11.5014 20.3005 11.6986C21.2285 11.9828 21.2575 12.7832 21.1241 13.601C20.7123 16.153 17.2787 18.5426 14.0307 18.5368Z" fill="white"/>
</svg>
